<svg xmlns="http://www.w3.org/2000/svg" xmlns:xlink="http://www.w3.org/1999/xlink" width="872" zoomAndPan="magnify" viewBox="0 0 654 601.499987" height="802" preserveAspectRatio="xMidYMid meet" version="1.0"><defs><g/><clipPath id="cdc686fffb"><path d="M 294 0.746094 L 540.367188 0.746094 L 540.367188 377.714844 L 294 377.714844 Z M 294 0.746094 " clip-rule="nonzero"/></clipPath><clipPath id="6f815226b5"><rect x="0" width="247" y="0" height="378"/></clipPath><clipPath id="39c734e56f"><path d="M 195 0.746094 L 342 0.746094 L 342 377.714844 L 195 377.714844 Z M 195 0.746094 " clip-rule="nonzero"/></clipPath><clipPath id="54f69bdfde"><rect x="0" width="147" y="0" height="378"/></clipPath><clipPath id="556e799c02"><path d="M 218 58 L 338 58 L 338 306 L 218 306 Z M 218 58 " clip-rule="nonzero"/></clipPath><clipPath id="3bf3b7c803"><path d="M 163.011719 93.140625 L 325.785156 32.589844 L 405.257812 246.234375 L 242.484375 306.78125 Z M 163.011719 93.140625 " clip-rule="nonzero"/></clipPath><clipPath id="afb82ea322"><path d="M 163.011719 93.140625 L 325.785156 32.589844 L 405.257812 246.234375 L 242.484375 306.78125 Z M 163.011719 93.140625 " clip-rule="nonzero"/></clipPath><clipPath id="64a5cd1f83"><path d="M 0.8125 0.746094 L 244 0.746094 L 244 377.714844 L 0.8125 377.714844 Z M 0.8125 0.746094 " clip-rule="nonzero"/></clipPath><clipPath id="2b593665de"><rect x="0" width="244" y="0" height="378"/></clipPath><clipPath id="f0db334c0a"><path d="M 233.238281 58.128906 L 274.308594 58.128906 L 274.308594 105.917969 L 233.238281 105.917969 Z M 233.238281 58.128906 " clip-rule="nonzero"/></clipPath><clipPath id="6c93ebf864"><path d="M 0.238281 0.128906 L 41.308594 0.128906 L 41.308594 47.917969 L 0.238281 47.917969 Z M 0.238281 0.128906 " clip-rule="nonzero"/></clipPath><clipPath id="7a20ca1059"><rect x="0" width="42" y="0" height="48"/></clipPath><clipPath id="b50a4ad11c"><rect x="0" width="541" y="0" height="378"/></clipPath><clipPath id="e1119aea07"><path d="M 0.253906 3 L 15 3 L 15 18 L 0.253906 18 Z M 0.253906 3 " clip-rule="nonzero"/></clipPath><clipPath id="cfe66b687b"><rect x="0" width="31" y="0" height="24"/></clipPath></defs><g transform="matrix(1, 0, 0, 1, 69, 111)"><g clip-path="url(#b50a4ad11c)"><g clip-path="url(#cdc686fffb)"><g transform="matrix(1, 0, 0, 1, 294, 0)"><g clip-path="url(#6f815226b5)"><g fill="#000000" fill-opacity="1"><g transform="translate(9.687455, 301.591921)"><g><path d="M 128.894531 -251.199219 L 218.21875 -251.199219 C 223.375 -251.199219 227.496094 -249.273438 230.574219 -245.421875 C 233.570312 -241.679688 234.574219 -237.339844 233.585938 -232.40625 L 219.726562 -235.179688 L 233.75 -233.425781 C 232.742188 -225.339844 231.351562 -214.746094 229.589844 -201.632812 L 223.9375 -159.433594 L 218.097656 -115.355469 C 216.207031 -100.992188 214.503906 -88.507812 212.988281 -77.902344 C 211.492188 -67.429688 210.5 -60.226562 210.007812 -56.289062 L 209.972656 -56 L 209.925781 -55.71875 C 208.722656 -48.507812 207.761719 -41.109375 207.039062 -33.523438 L 204.960938 -12.375 C 204.378906 -6.660156 204.085938 -3.039062 204.085938 -1.507812 L 204.085938 0.234375 L 203.664062 1.921875 C 202.90625 4.953125 201.476562 7.519531 199.382812 9.617188 C 196.371094 12.628906 192.722656 14.132812 188.445312 14.132812 L 40.703125 14.132812 C 37.0625 14.132812 33.855469 13.097656 31.09375 11.023438 C 29.007812 9.460938 27.433594 7.484375 26.375 5.105469 C 25.5 3.136719 25.0625 1.058594 25.0625 -1.128906 L 39.195312 -1.128906 L 25.417969 2.011719 C 22.019531 -12.878906 19.539062 -28.089844 17.972656 -43.621094 C 16.480469 -58.410156 14.742188 -73.136719 12.753906 -87.800781 L 12.730469 -87.96875 L 12.710938 -88.140625 C 12.476562 -90.269531 11.988281 -93.96875 11.253906 -99.242188 L 8.804688 -116.761719 C 7.9375 -122.957031 7.070312 -128.773438 6.203125 -134.214844 C 5.28125 -140.011719 4.683594 -144.304688 4.402344 -147.085938 L 18.46875 -148.496094 L 4.636719 -145.582031 C 3.542969 -150.78125 2.46875 -157.929688 1.414062 -167.03125 C 0.402344 -175.746094 -0.609375 -184.90625 -1.617188 -194.503906 C -2.609375 -203.921875 -3.601562 -212.335938 -4.589844 -219.742188 C -5.539062 -226.878906 -6.222656 -231.378906 -6.636719 -233.242188 L -6.972656 -234.757812 L -6.972656 -236.308594 C -6.972656 -240.464844 -5.53125 -243.984375 -2.644531 -246.867188 C 0.242188 -249.753906 3.761719 -251.199219 7.914062 -251.199219 L 96.859375 -251.199219 C 101.265625 -251.199219 104.972656 -249.691406 107.984375 -246.679688 C 110.996094 -243.667969 112.503906 -239.960938 112.503906 -235.554688 L 98.367188 -235.554688 L 112.484375 -236.28125 C 112.960938 -226.945312 113.792969 -218.367188 114.980469 -210.535156 C 116.246094 -202.199219 117.507812 -193.542969 118.769531 -184.574219 C 120.074219 -175.3125 121.117188 -164.855469 121.894531 -153.203125 C 121.773438 -154.644531 121.183594 -156.042969 120.125 -157.40625 C 118.496094 -159.5 116.4375 -160.742188 113.953125 -161.136719 C 110.667969 -161.65625 107.714844 -160.714844 105.089844 -158.320312 C 103.40625 -156.78125 102.425781 -155.160156 102.140625 -153.457031 L 116.082031 -151.132812 L 102.003906 -152.382812 C 103.046875 -164.136719 104.425781 -174.628906 106.144531 -183.863281 C 107.757812 -192.5625 109.25 -201.070312 110.613281 -209.390625 C 111.910156 -217.273438 112.792969 -226.21875 113.269531 -236.226562 L 113.335938 -237.625 L 113.675781 -238.984375 C 114.433594 -242.019531 115.863281 -244.582031 117.960938 -246.679688 C 120.96875 -249.691406 124.617188 -251.199219 128.894531 -251.199219 Z M 128.894531 -222.929688 C 132.421875 -222.929688 135.441406 -224.183594 137.949219 -226.691406 C 139.542969 -228.285156 140.59375 -230.097656 141.101562 -232.128906 L 127.386719 -235.554688 L 141.507812 -234.882812 C 140.976562 -223.789062 139.980469 -213.765625 138.507812 -204.8125 C 137.109375 -196.296875 135.585938 -187.59375 133.9375 -178.703125 C 132.382812 -170.347656 131.125 -160.742188 130.160156 -149.882812 L 130.113281 -149.34375 L 130.023438 -148.808594 C 129.238281 -144.089844 127.28125 -140.300781 124.152344 -137.445312 C 120.082031 -133.730469 115.214844 -132.320312 109.542969 -133.214844 C 104.667969 -133.984375 100.757812 -136.261719 97.8125 -140.050781 C 95.433594 -143.113281 94.058594 -146.867188 93.6875 -151.324219 C 92.957031 -162.285156 91.988281 -172.054688 90.777344 -180.632812 C 89.53125 -189.503906 88.28125 -198.058594 87.03125 -206.300781 C 85.707031 -215.054688 84.777344 -224.566406 84.253906 -234.832031 L 84.234375 -235.195312 L 84.234375 -235.554688 C 84.234375 -232.15625 85.488281 -229.199219 87.996094 -226.691406 C 90.503906 -224.183594 93.460938 -222.929688 96.859375 -222.929688 L 7.914062 -222.929688 C 11.566406 -222.929688 14.710938 -224.246094 17.34375 -226.878906 C 19.976562 -229.515625 21.296875 -232.65625 21.296875 -236.308594 L 7.160156 -236.308594 L 20.957031 -239.375 C 21.550781 -236.71875 22.375 -231.417969 23.433594 -223.480469 C 24.453125 -215.8125 25.476562 -207.140625 26.492188 -197.460938 C 27.492188 -187.964844 28.492188 -178.90625 29.492188 -170.285156 C 30.449219 -162.046875 31.382812 -155.753906 32.296875 -151.40625 L 32.457031 -150.660156 L 32.53125 -149.902344 C 32.753906 -147.660156 33.285156 -143.910156 34.121094 -138.65625 C 35.015625 -133.039062 35.90625 -127.046875 36.800781 -120.675781 L 39.25 -103.148438 C 40.023438 -97.617188 40.539062 -93.652344 40.808594 -91.261719 L 26.757812 -89.699219 L 40.765625 -91.597656 C 42.796875 -76.613281 44.574219 -61.566406 46.097656 -46.457031 C 47.546875 -32.085938 49.839844 -18.027344 52.976562 -4.273438 L 53.332031 -2.722656 L 53.332031 -1.128906 C 53.332031 -2.941406 52.957031 -4.691406 52.207031 -6.375 C 51.273438 -8.476562 49.890625 -10.214844 48.054688 -11.589844 C 45.792969 -13.285156 43.34375 -14.132812 40.703125 -14.132812 L 188.445312 -14.132812 C 184.917969 -14.132812 181.902344 -12.878906 179.390625 -10.371094 C 177.796875 -8.777344 176.746094 -6.964844 176.238281 -4.9375 L 189.953125 -1.507812 L 175.816406 -1.507812 C 175.816406 -3.996094 176.15625 -8.539062 176.828125 -15.136719 L 178.898438 -36.203125 C 179.683594 -44.445312 180.730469 -52.5 182.039062 -60.363281 L 195.980469 -58.039062 L 181.957031 -59.792969 C 182.46875 -63.894531 183.484375 -71.265625 185.003906 -81.898438 C 186.503906 -92.402344 188.195312 -104.789062 190.074219 -119.070312 L 195.917969 -163.183594 L 201.574219 -205.40625 C 203.324219 -218.425781 204.703125 -228.9375 205.703125 -236.933594 L 205.765625 -237.445312 L 205.867188 -237.949219 C 205.621094 -236.726562 205.585938 -235.453125 205.761719 -234.136719 C 206.078125 -231.773438 206.992188 -229.652344 208.5 -227.761719 C 210.046875 -225.832031 211.96875 -224.457031 214.265625 -223.632812 C 215.582031 -223.164062 216.902344 -222.929688 218.21875 -222.929688 Z M 128.894531 -222.929688 "/></g></g></g><g fill="#ffffff" fill-opacity="1"><g transform="translate(9.687455, 301.591921)"><g><path d="M 128.890625 -237.0625 L 218.21875 -237.0625 C 219.476562 -237.0625 219.984375 -236.4375 219.734375 -235.1875 C 218.722656 -227.144531 217.335938 -216.585938 215.578125 -203.515625 C 213.816406 -190.453125 211.929688 -176.382812 209.921875 -161.3125 C 207.910156 -146.238281 205.960938 -131.539062 204.078125 -117.21875 C 202.203125 -102.894531 200.507812 -90.457031 199 -79.90625 C 197.488281 -69.351562 196.484375 -62.066406 195.984375 -58.046875 C 194.722656 -50.503906 193.71875 -42.773438 192.96875 -34.859375 C 192.21875 -26.941406 191.523438 -19.90625 190.890625 -13.75 C 190.265625 -7.59375 189.953125 -3.507812 189.953125 -1.5 C 189.703125 -0.5 189.203125 0 188.453125 0 L 40.703125 0 C 39.703125 0 39.203125 -0.375 39.203125 -1.125 C 35.929688 -15.445312 33.539062 -30.082031 32.03125 -45.03125 C 30.53125 -59.988281 28.773438 -74.878906 26.765625 -89.703125 C 26.503906 -91.960938 26 -95.789062 25.25 -101.1875 C 24.5 -106.59375 23.679688 -112.4375 22.796875 -118.71875 C 21.921875 -125 21.039062 -130.898438 20.15625 -136.421875 C 19.28125 -141.953125 18.71875 -145.976562 18.46875 -148.5 C 17.457031 -153.269531 16.445312 -159.988281 15.4375 -168.65625 C 14.4375 -177.320312 13.4375 -186.429688 12.4375 -195.984375 C 11.4375 -205.535156 10.429688 -214.078125 9.421875 -221.609375 C 8.421875 -229.148438 7.664062 -234.050781 7.15625 -236.3125 C 7.15625 -236.8125 7.410156 -237.0625 7.921875 -237.0625 L 96.859375 -237.0625 C 97.867188 -237.0625 98.375 -236.5625 98.375 -235.5625 C 98.875 -225.757812 99.75 -216.710938 101 -208.421875 C 102.257812 -200.128906 103.515625 -191.519531 104.765625 -182.59375 C 106.023438 -173.675781 107.035156 -163.566406 107.796875 -152.265625 C 108.046875 -149.242188 109.363281 -147.546875 111.75 -147.171875 C 114.132812 -146.796875 115.578125 -148.117188 116.078125 -151.140625 C 117.085938 -162.441406 118.40625 -172.488281 120.03125 -181.28125 C 121.664062 -190.070312 123.175781 -198.675781 124.5625 -207.09375 C 125.945312 -215.519531 126.890625 -225.007812 127.390625 -235.5625 C 127.640625 -236.5625 128.140625 -237.0625 128.890625 -237.0625 Z M 128.890625 -237.0625 "/></g></g></g></g></g></g><g clip-path="url(#39c734e56f)"><g transform="matrix(1, 0, 0, 1, 195, 0)"><g clip-path="url(#54f69bdfde)"><g fill="#000000" fill-opacity="1"><g transform="translate(5.929627, 301.591921)"><g><path d="M 11.308594 -251.199219 L 115.703125 -251.199219 C 121.230469 -251.199219 125.742188 -249.292969 129.234375 -245.484375 C 132.402344 -242.027344 133.984375 -237.714844 133.984375 -232.539062 L 133.984375 -231.8125 L 133.910156 -231.085938 C 133.203125 -224.238281 132.785156 -214.625 132.664062 -202.25 C 132.539062 -189.484375 132.476562 -175.648438 132.476562 -160.742188 C 132.476562 -145.875 132.601562 -131.386719 132.851562 -117.273438 L 133.417969 -79.738281 C 133.542969 -69.121094 133.722656 -61.789062 133.960938 -57.738281 L 133.984375 -57.324219 L 133.984375 -56.910156 C 133.984375 -48.390625 134.226562 -39.929688 134.714844 -31.535156 C 135.210938 -22.996094 135.828125 -14.394531 136.570312 -5.730469 C 137.042969 -0.0898438 135.539062 4.625 132.058594 8.421875 C 128.566406 12.230469 123.996094 14.132812 118.34375 14.132812 L 11.683594 14.132812 C 9.390625 14.132812 7.230469 13.671875 5.199219 12.75 C 2.355469 11.457031 0.132812 9.472656 -1.472656 6.800781 C -3.535156 3.363281 -4.148438 -0.457031 -3.308594 -4.65625 L 10.554688 -1.882812 L -3.417969 -4.035156 C -3.003906 -6.722656 -2.679688 -12.167969 -2.445312 -20.378906 C -2.199219 -29.039062 -2.074219 -38.765625 -2.074219 -49.5625 C -2.074219 -60.429688 -2.136719 -70.671875 -2.261719 -80.28125 C -2.382812 -89.78125 -2.566406 -96.957031 -2.808594 -101.808594 L -2.828125 -102.160156 L -2.828125 -102.515625 C -2.828125 -108.484375 -2.890625 -116.339844 -3.015625 -126.078125 L -3.390625 -157.75 L -3.769531 -190.734375 L -4.144531 -218.78125 C -4.273438 -226.875 -4.335938 -232.46875 -4.335938 -235.554688 L -4.335938 -241.410156 L 5.453125 -251.199219 Z M 11.308594 -222.929688 L 11.308594 -237.0625 L 21.300781 -227.070312 L 19.792969 -225.5625 L 9.800781 -235.554688 L 23.933594 -235.554688 C 23.933594 -232.613281 23.996094 -227.148438 24.121094 -219.164062 L 24.496094 -191.054688 L 24.875 -158.085938 L 25.25 -126.4375 C 25.378906 -116.578125 25.441406 -108.605469 25.441406 -102.515625 L 11.308594 -102.515625 L 25.421875 -103.21875 C 25.683594 -98.019531 25.878906 -90.496094 26.003906 -80.648438 C 26.132812 -70.914062 26.195312 -60.550781 26.195312 -49.5625 C 26.195312 -38.496094 26.066406 -28.5 25.8125 -19.570312 C 25.542969 -10.191406 25.113281 -3.582031 24.523438 0.265625 L 24.472656 0.578125 L 24.414062 0.886719 C 25 -2.054688 24.453125 -4.933594 22.765625 -7.742188 C 21.351562 -10.101562 19.394531 -11.847656 16.894531 -12.984375 C 15.210938 -13.75 13.472656 -14.132812 11.683594 -14.132812 L 118.34375 -14.132812 C 117.527344 -14.132812 116.648438 -13.972656 115.714844 -13.652344 C 113.996094 -13.0625 112.496094 -12.074219 111.222656 -10.679688 C 109.953125 -9.296875 109.097656 -7.726562 108.660156 -5.972656 C 108.421875 -5.023438 108.335938 -4.136719 108.40625 -3.316406 C 107.640625 -12.238281 107.003906 -21.101562 106.492188 -29.898438 C 105.976562 -38.839844 105.714844 -47.84375 105.714844 -56.910156 L 119.851562 -56.910156 L 105.742188 -56.082031 C 105.476562 -60.574219 105.28125 -68.316406 105.152344 -79.308594 L 104.589844 -116.773438 C 104.335938 -131.054688 104.210938 -145.710938 104.210938 -160.742188 C 104.210938 -175.738281 104.273438 -189.667969 104.398438 -202.527344 C 104.527344 -215.78125 104.992188 -226.269531 105.792969 -233.996094 L 119.851562 -232.539062 L 105.714844 -232.539062 C 105.714844 -230.382812 106.609375 -228.328125 108.394531 -226.382812 C 110.503906 -224.078125 112.941406 -222.929688 115.703125 -222.929688 Z M 11.308594 -222.929688 "/></g></g></g><g fill="#ffffff" fill-opacity="1"><g transform="translate(5.929627, 301.591921)"><g><path d="M 11.3125 -237.0625 L 115.703125 -237.0625 C 118.460938 -237.0625 119.84375 -235.554688 119.84375 -232.546875 C 119.09375 -225.253906 118.65625 -215.203125 118.53125 -202.390625 C 118.40625 -189.578125 118.34375 -175.691406 118.34375 -160.734375 C 118.34375 -145.785156 118.46875 -131.210938 118.71875 -117.015625 C 118.96875 -102.828125 119.15625 -90.328125 119.28125 -79.515625 C 119.40625 -68.710938 119.59375 -61.175781 119.84375 -56.90625 C 119.84375 -48.113281 120.09375 -39.382812 120.59375 -30.71875 C 121.101562 -22.050781 121.734375 -13.316406 122.484375 -4.515625 C 122.734375 -1.503906 121.351562 0 118.34375 0 L 11.6875 0 C 10.675781 0 10.296875 -0.628906 10.546875 -1.890625 C 11.054688 -5.148438 11.4375 -11.175781 11.6875 -19.96875 C 11.9375 -28.769531 12.0625 -38.632812 12.0625 -49.5625 C 12.0625 -60.488281 12 -70.785156 11.875 -80.453125 C 11.75 -90.128906 11.5625 -97.484375 11.3125 -102.515625 C 11.3125 -108.546875 11.25 -116.457031 11.125 -126.25 C 11 -136.050781 10.867188 -146.601562 10.734375 -157.90625 C 10.609375 -169.21875 10.484375 -180.210938 10.359375 -190.890625 C 10.234375 -201.566406 10.109375 -210.925781 9.984375 -218.96875 C 9.859375 -227.007812 9.796875 -232.539062 9.796875 -235.5625 C 10.046875 -235.8125 10.550781 -236.3125 11.3125 -237.0625 Z M 11.3125 -237.0625 "/></g></g></g></g></g></g><g clip-path="url(#556e799c02)"><g clip-path="url(#3bf3b7c803)"><g clip-path="url(#afb82ea322)"><path fill="#000000" d="M 252.871094 59.714844 L 218.695312 186.644531 L 258.882812 185.28125 L 242.101562 305.746094 L 325.457031 146.929688 L 287.484375 147.828125 L 337.191406 58.644531 Z M 252.871094 59.714844 " fill-opacity="1" fill-rule="nonzero"/></g></g></g><g clip-path="url(#64a5cd1f83)"><g><g clip-path="url(#2b593665de)"><g fill="#000000" fill-opacity="1"><g transform="translate(6.653479, 301.591921)"><g><path d="M 233.859375 -236.308594 C 233.859375 -226.492188 234.105469 -216.609375 234.597656 -206.667969 C 235.121094 -196.023438 235.121094 -185.441406 234.597656 -174.925781 L 233.839844 -160.386719 C 233.613281 -155.96875 233.617188 -151.488281 233.84375 -146.9375 L 233.859375 -146.585938 L 233.859375 -146.234375 C 233.859375 -141.796875 232.578125 -137.972656 230.007812 -134.765625 C 227.117188 -131.148438 223.265625 -129.039062 218.464844 -128.4375 C 213.753906 -127.851562 208.347656 -127.625 202.25 -127.769531 C 197.082031 -127.886719 192.226562 -127.890625 187.6875 -127.769531 C 186.015625 -127.726562 184.746094 -127.625 183.882812 -127.46875 L 183.851562 -127.484375 C 184.449219 -127.683594 185.074219 -128.003906 185.730469 -128.441406 C 185.984375 -128.609375 186.167969 -128.75 186.285156 -128.855469 C 186.175781 -128.753906 186.019531 -128.589844 185.816406 -128.363281 C 186.289062 -128.890625 186.632812 -129.402344 186.851562 -129.890625 C 186.875 -129.945312 186.886719 -129.976562 186.886719 -129.976562 C 186.855469 -129.882812 186.824219 -129.753906 186.789062 -129.597656 L 172.992188 -132.664062 L 187.015625 -130.910156 C 186.816406 -129.308594 186.597656 -125.324219 186.363281 -118.949219 C 186.117188 -112.339844 185.996094 -104.414062 185.996094 -95.164062 L 185.996094 -14.320312 C 185.996094 -11.480469 186.023438 -9.300781 186.078125 -7.777344 C 186.101562 -7.183594 186.125 -6.75 186.148438 -6.484375 C 186.097656 -7.054688 185.929688 -7.765625 185.648438 -8.617188 L 186.371094 -6.4375 L 186.371094 -4.144531 C 186.371094 0.601562 185.023438 4.621094 182.328125 7.914062 C 178.9375 12.0625 174.441406 14.132812 168.847656 14.132812 L 63.695312 14.132812 C 58.492188 14.132812 54.207031 12.261719 50.832031 8.511719 C 48.203125 5.589844 46.671875 1.964844 46.238281 -2.363281 L 46.167969 -3.0625 L 46.167969 -3.769531 C 46.167969 -7.113281 46.230469 -12.714844 46.359375 -20.578125 C 46.484375 -28.414062 46.675781 -37.253906 46.925781 -47.097656 L 47.679688 -76.308594 L 48.246094 -101.324219 C 48.355469 -107.644531 48.328125 -111.476562 48.160156 -112.820312 C 47.566406 -117.289062 47.34375 -121.800781 47.496094 -126.351562 C 47.484375 -126.035156 47.542969 -125.8125 47.667969 -125.6875 L 57.664062 -135.679688 L 48.273438 -125.117188 C 47.457031 -125.839844 46.648438 -126.335938 45.84375 -126.605469 C 44.246094 -127.140625 42.605469 -127.480469 40.933594 -127.632812 C 39 -127.847656 36.035156 -127.953125 32.035156 -127.953125 L 14.320312 -127.953125 C 8.996094 -127.953125 4.644531 -129.828125 1.273438 -133.574219 C -1.710938 -136.890625 -3.203125 -140.984375 -3.203125 -145.855469 L -3.203125 -150.945312 C -3.203125 -154.191406 -3.265625 -157.820312 -3.386719 -161.824219 C -3.5 -165.589844 -3.664062 -168.414062 -3.871094 -170.300781 L -3.902344 -170.578125 L -3.921875 -170.855469 C -4.183594 -174.53125 -4.445312 -179.777344 -4.703125 -186.59375 C -4.960938 -193.429688 -5.089844 -200.515625 -5.089844 -207.855469 L -5.089844 -234.800781 C -5.089844 -237.402344 -4.519531 -239.839844 -3.382812 -242.113281 C -2.125 -244.632812 -0.3125 -246.679688 2.054688 -248.257812 C 4.992188 -250.21875 8.453125 -251.199219 12.4375 -251.199219 L 222.308594 -251.199219 L 225.671875 -249.515625 C 228.035156 -248.335938 229.941406 -246.65625 231.390625 -244.480469 C 233.039062 -242.011719 233.859375 -239.289062 233.859375 -236.308594 Z M 205.59375 -236.308594 C 205.59375 -233.582031 206.351562 -231.078125 207.871094 -228.800781 C 209.195312 -226.8125 210.914062 -225.289062 213.027344 -224.234375 L 212.652344 -224.421875 L 218.972656 -237.0625 L 218.972656 -222.929688 L 12.4375 -222.929688 C 14.160156 -222.929688 15.925781 -223.53125 17.734375 -224.738281 C 19.53125 -225.9375 20.921875 -227.515625 21.898438 -229.46875 C 22.753906 -231.175781 23.179688 -232.953125 23.179688 -234.800781 L 23.179688 -207.855469 C 23.179688 -200.871094 23.300781 -194.140625 23.546875 -187.660156 C 23.792969 -181.15625 24.035156 -176.226562 24.273438 -172.867188 L 10.175781 -171.863281 L 24.222656 -173.421875 C 24.515625 -170.785156 24.730469 -167.203125 24.867188 -162.679688 C 25 -158.390625 25.0625 -154.480469 25.0625 -150.945312 L 25.0625 -145.855469 C 25.0625 -148.214844 24.136719 -150.425781 22.285156 -152.484375 C 20.042969 -154.976562 17.386719 -156.222656 14.320312 -156.222656 L 32.035156 -156.222656 C 37.078125 -156.222656 40.898438 -156.078125 43.492188 -155.785156 C 47.34375 -155.4375 51.109375 -154.648438 54.785156 -153.421875 C 59.257812 -151.933594 63.347656 -149.539062 67.054688 -146.242188 L 67.363281 -145.96875 L 67.660156 -145.675781 C 73.3125 -140.019531 76.007812 -133.265625 75.746094 -125.410156 C 75.648438 -122.425781 75.804688 -119.394531 76.210938 -116.328125 C 76.546875 -113.652344 76.644531 -108.4375 76.503906 -100.6875 L 75.9375 -75.578125 L 75.183594 -46.371094 C 74.933594 -36.617188 74.746094 -27.867188 74.621094 -20.125 C 74.5 -12.410156 74.4375 -6.960938 74.4375 -3.769531 L 60.300781 -3.769531 L 74.367188 -5.175781 C 74.183594 -6.992188 73.34375 -8.730469 71.84375 -10.398438 C 69.601562 -12.886719 66.886719 -14.132812 63.695312 -14.132812 L 168.847656 -14.132812 C 165.511719 -14.132812 162.714844 -12.75 160.449219 -9.988281 C 158.886719 -8.074219 158.105469 -6.128906 158.105469 -4.144531 L 172.238281 -4.144531 L 158.828125 0.324219 C 158.09375 -1.878906 157.726562 -6.761719 157.726562 -14.320312 L 157.726562 -95.164062 C 157.726562 -104.761719 157.855469 -113.039062 158.113281 -119.996094 C 158.378906 -127.191406 158.664062 -132 158.96875 -134.417969 L 159.050781 -135.078125 L 159.195312 -135.730469 C 160.226562 -140.378906 162.058594 -144.183594 164.6875 -147.144531 C 166.5 -149.179688 168.289062 -150.789062 170.050781 -151.964844 C 173.820312 -154.476562 179.449219 -155.832031 186.941406 -156.027344 C 191.949219 -156.160156 197.269531 -156.160156 202.90625 -156.027344 C 207.613281 -155.917969 211.628906 -156.074219 214.957031 -156.488281 C 212.164062 -156.140625 209.824219 -154.785156 207.9375 -152.425781 C 206.375 -150.472656 205.59375 -148.40625 205.59375 -146.234375 L 219.726562 -146.234375 L 205.609375 -145.527344 C 205.335938 -151.027344 205.335938 -156.472656 205.609375 -161.851562 L 206.363281 -176.335938 C 206.84375 -185.917969 206.84375 -195.5625 206.363281 -205.273438 C 205.847656 -215.679688 205.59375 -226.027344 205.59375 -236.308594 Z M 205.59375 -236.308594 "/></g></g></g><g fill="#ffffff" fill-opacity="1"><g transform="translate(6.653479, 301.591921)"><g><path d="M 219.734375 -236.3125 C 219.734375 -226.257812 219.984375 -216.144531 220.484375 -205.96875 C 220.984375 -195.789062 220.984375 -185.675781 220.484375 -175.625 C 220.234375 -170.851562 219.976562 -166.015625 219.71875 -161.109375 C 219.46875 -156.210938 219.472656 -151.253906 219.734375 -146.234375 C 219.734375 -143.972656 218.726562 -142.71875 216.71875 -142.46875 C 212.695312 -141.957031 207.984375 -141.765625 202.578125 -141.890625 C 197.171875 -142.023438 192.082031 -142.023438 187.3125 -141.890625 C 182.539062 -141.765625 179.398438 -141.203125 177.890625 -140.203125 C 177.140625 -139.703125 176.257812 -138.882812 175.25 -137.75 C 174.25 -136.625 173.5 -134.929688 173 -132.671875 C 172.738281 -130.660156 172.484375 -126.257812 172.234375 -119.46875 C 171.984375 -112.6875 171.859375 -104.582031 171.859375 -95.15625 C 171.859375 -85.738281 171.859375 -75.941406 171.859375 -65.765625 C 171.859375 -55.585938 171.859375 -45.976562 171.859375 -36.9375 C 171.859375 -27.894531 171.859375 -20.359375 171.859375 -14.328125 C 171.859375 -8.296875 171.984375 -4.898438 172.234375 -4.140625 C 172.234375 -1.378906 171.101562 0 168.84375 0 L 63.6875 0 C 61.675781 0 60.546875 -1.253906 60.296875 -3.765625 C 60.296875 -7.035156 60.359375 -12.5625 60.484375 -20.34375 C 60.609375 -28.132812 60.796875 -36.929688 61.046875 -46.734375 C 61.304688 -56.535156 61.5625 -66.269531 61.8125 -75.9375 C 62.0625 -85.613281 62.25 -93.96875 62.375 -101 C 62.5 -108.039062 62.4375 -112.566406 62.1875 -114.578125 C 61.6875 -118.347656 61.5 -122.113281 61.625 -125.875 C 61.75 -129.644531 60.429688 -132.914062 57.671875 -135.6875 C 55.398438 -137.695312 52.945312 -139.140625 50.3125 -140.015625 C 47.675781 -140.890625 44.976562 -141.453125 42.21875 -141.703125 C 39.945312 -141.960938 36.550781 -142.09375 32.03125 -142.09375 C 27.507812 -142.09375 23.425781 -142.09375 19.78125 -142.09375 C 16.144531 -142.09375 14.328125 -142.09375 14.328125 -142.09375 C 12.066406 -142.09375 10.9375 -143.347656 10.9375 -145.859375 C 10.9375 -145.859375 10.9375 -147.550781 10.9375 -150.9375 C 10.9375 -154.332031 10.867188 -158.101562 10.734375 -162.25 C 10.609375 -166.394531 10.421875 -169.597656 10.171875 -171.859375 C 9.921875 -175.378906 9.671875 -180.46875 9.421875 -187.125 C 9.171875 -193.78125 9.046875 -200.6875 9.046875 -207.84375 C 9.046875 -215.007812 9.046875 -221.164062 9.046875 -226.3125 C 9.046875 -231.46875 9.046875 -234.296875 9.046875 -234.796875 C 9.046875 -236.304688 10.175781 -237.0625 12.4375 -237.0625 L 218.96875 -237.0625 C 218.96875 -237.0625 219.09375 -237 219.34375 -236.875 C 219.601562 -236.75 219.734375 -236.5625 219.734375 -236.3125 Z M 219.734375 -236.3125 "/></g></g></g></g></g></g><g clip-path="url(#f0db334c0a)"><g transform="matrix(1, 0, 0, 1, 233, 58)"><g clip-path="url(#7a20ca1059)"><g clip-path="url(#6c93ebf864)"><path fill="#000000" d="M 0.238281 0.128906 L 41.308594 0.128906 L 41.308594 47.941406 L 0.238281 47.941406 Z M 0.238281 0.128906 " fill-opacity="1" fill-rule="nonzero"/></g></g></g></g></g></g><g transform="matrix(1, 0, 0, 1, 312, 231)"><g clip-path="url(#cfe66b687b)"><g clip-path="url(#e1119aea07)"><g fill="#000000" fill-opacity="1"><g transform="translate(0.357276, 17.975165)"><g><path d="M 13.984375 0 L 6.4375 0 C 6.375 0 6.34375 -0.0351562 6.34375 -0.109375 C 6.363281 -0.410156 6.394531 -0.8125 6.4375 -1.3125 C 6.476562 -1.8125 6.523438 -2.316406 6.578125 -2.828125 C 6.640625 -3.335938 6.6875 -3.726562 6.71875 -4 C 6.726562 -4.03125 6.753906 -4.050781 6.796875 -4.0625 C 6.847656 -4.082031 6.890625 -4.09375 6.921875 -4.09375 C 6.953125 -4.082031 7.046875 -4.078125 7.203125 -4.078125 C 7.359375 -4.078125 7.515625 -4.078125 7.671875 -4.078125 C 7.835938 -4.078125 7.941406 -4.078125 7.984375 -4.078125 C 7.984375 -4.078125 8.046875 -4.109375 8.171875 -4.171875 C 8.304688 -4.234375 8.375 -4.34375 8.375 -4.5 C 8.363281 -4.570312 8.332031 -4.796875 8.28125 -5.171875 C 8.226562 -5.554688 8.164062 -5.988281 8.09375 -6.46875 C 8.019531 -6.957031 7.957031 -7.425781 7.90625 -7.875 C 7.851562 -8.320312 7.816406 -8.65625 7.796875 -8.875 C 7.785156 -9.207031 7.738281 -9.488281 7.65625 -9.71875 C 7.582031 -9.957031 7.46875 -10.078125 7.3125 -10.078125 C 7.101562 -10.085938 6.953125 -9.976562 6.859375 -9.75 C 6.773438 -9.53125 6.726562 -9.359375 6.71875 -9.234375 C 6.664062 -8.898438 6.585938 -8.421875 6.484375 -7.796875 C 6.378906 -7.179688 6.253906 -6.503906 6.109375 -5.765625 C 5.972656 -5.023438 5.84375 -4.285156 5.71875 -3.546875 C 5.59375 -2.804688 5.488281 -2.128906 5.40625 -1.515625 C 5.320312 -0.910156 5.269531 -0.441406 5.25 -0.109375 C 5.25 -0.0351562 5.226562 0 5.1875 0 L 0.515625 0 C 0.453125 0 0.425781 -0.046875 0.4375 -0.140625 C 0.457031 -0.203125 0.46875 -0.265625 0.46875 -0.328125 C 0.476562 -0.398438 0.492188 -0.46875 0.515625 -0.53125 C 0.546875 -0.664062 0.601562 -0.960938 0.6875 -1.421875 C 0.78125 -1.878906 0.882812 -2.394531 1 -2.96875 C 1.125 -3.539062 1.238281 -4.09375 1.34375 -4.625 C 1.445312 -5.15625 1.539062 -5.566406 1.625 -5.859375 C 1.65625 -6.054688 1.710938 -6.394531 1.796875 -6.875 C 1.878906 -7.351562 1.96875 -7.90625 2.0625 -8.53125 C 2.164062 -9.15625 2.269531 -9.796875 2.375 -10.453125 C 2.488281 -11.109375 2.585938 -11.726562 2.671875 -12.3125 C 2.753906 -12.90625 2.828125 -13.394531 2.890625 -13.78125 C 2.953125 -14.164062 2.984375 -14.394531 2.984375 -14.46875 C 3.003906 -14.53125 3.035156 -14.5625 3.078125 -14.5625 L 11.515625 -14.5625 C 11.546875 -14.5625 11.566406 -14.53125 11.578125 -14.46875 C 11.609375 -14.3125 11.664062 -13.988281 11.75 -13.5 C 11.832031 -13.019531 11.925781 -12.476562 12.03125 -11.875 C 12.132812 -11.269531 12.226562 -10.691406 12.3125 -10.140625 C 12.40625 -9.597656 12.484375 -9.175781 12.546875 -8.875 C 12.660156 -8.25 12.757812 -7.628906 12.84375 -7.015625 C 12.9375 -6.398438 13.03125 -5.78125 13.125 -5.15625 C 13.15625 -5.039062 13.195312 -4.804688 13.25 -4.453125 C 13.3125 -4.109375 13.382812 -3.710938 13.46875 -3.265625 C 13.550781 -2.828125 13.628906 -2.382812 13.703125 -1.9375 C 13.785156 -1.5 13.859375 -1.113281 13.921875 -0.78125 C 13.992188 -0.457031 14.039062 -0.242188 14.0625 -0.140625 C 14.09375 -0.046875 14.066406 0 13.984375 0 Z M 13.984375 0 "/></g></g></g></g><g fill="#000000" fill-opacity="1"><g transform="translate(14.9192, 17.975165)"><g><path d="M 13.984375 0 L 6.4375 0 C 6.375 0 6.34375 -0.0351562 6.34375 -0.109375 C 6.363281 -0.410156 6.394531 -0.8125 6.4375 -1.3125 C 6.476562 -1.8125 6.523438 -2.316406 6.578125 -2.828125 C 6.640625 -3.335938 6.6875 -3.726562 6.71875 -4 C 6.726562 -4.03125 6.753906 -4.050781 6.796875 -4.0625 C 6.847656 -4.082031 6.890625 -4.09375 6.921875 -4.09375 C 6.953125 -4.082031 7.046875 -4.078125 7.203125 -4.078125 C 7.359375 -4.078125 7.515625 -4.078125 7.671875 -4.078125 C 7.835938 -4.078125 7.941406 -4.078125 7.984375 -4.078125 C 7.984375 -4.078125 8.046875 -4.109375 8.171875 -4.171875 C 8.304688 -4.234375 8.375 -4.34375 8.375 -4.5 C 8.363281 -4.570312 8.332031 -4.796875 8.28125 -5.171875 C 8.226562 -5.554688 8.164062 -5.988281 8.09375 -6.46875 C 8.019531 -6.957031 7.957031 -7.425781 7.90625 -7.875 C 7.851562 -8.320312 7.816406 -8.65625 7.796875 -8.875 C 7.785156 -9.207031 7.738281 -9.488281 7.65625 -9.71875 C 7.582031 -9.957031 7.46875 -10.078125 7.3125 -10.078125 C 7.101562 -10.085938 6.953125 -9.976562 6.859375 -9.75 C 6.773438 -9.53125 6.726562 -9.359375 6.71875 -9.234375 C 6.664062 -8.898438 6.585938 -8.421875 6.484375 -7.796875 C 6.378906 -7.179688 6.253906 -6.503906 6.109375 -5.765625 C 5.972656 -5.023438 5.84375 -4.285156 5.71875 -3.546875 C 5.59375 -2.804688 5.488281 -2.128906 5.40625 -1.515625 C 5.320312 -0.910156 5.269531 -0.441406 5.25 -0.109375 C 5.25 -0.0351562 5.226562 0 5.1875 0 L 0.515625 0 C 0.453125 0 0.425781 -0.046875 0.4375 -0.140625 C 0.457031 -0.203125 0.46875 -0.265625 0.46875 -0.328125 C 0.476562 -0.398438 0.492188 -0.46875 0.515625 -0.53125 C 0.546875 -0.664062 0.601562 -0.960938 0.6875 -1.421875 C 0.78125 -1.878906 0.882812 -2.394531 1 -2.96875 C 1.125 -3.539062 1.238281 -4.09375 1.34375 -4.625 C 1.445312 -5.15625 1.539062 -5.566406 1.625 -5.859375 C 1.65625 -6.054688 1.710938 -6.394531 1.796875 -6.875 C 1.878906 -7.351562 1.96875 -7.90625 2.0625 -8.53125 C 2.164062 -9.15625 2.269531 -9.796875 2.375 -10.453125 C 2.488281 -11.109375 2.585938 -11.726562 2.671875 -12.3125 C 2.753906 -12.90625 2.828125 -13.394531 2.890625 -13.78125 C 2.953125 -14.164062 2.984375 -14.394531 2.984375 -14.46875 C 3.003906 -14.53125 3.035156 -14.5625 3.078125 -14.5625 L 11.515625 -14.5625 C 11.546875 -14.5625 11.566406 -14.53125 11.578125 -14.46875 C 11.609375 -14.3125 11.664062 -13.988281 11.75 -13.5 C 11.832031 -13.019531 11.925781 -12.476562 12.03125 -11.875 C 12.132812 -11.269531 12.226562 -10.691406 12.3125 -10.140625 C 12.40625 -9.597656 12.484375 -9.175781 12.546875 -8.875 C 12.660156 -8.25 12.757812 -7.628906 12.84375 -7.015625 C 12.9375 -6.398438 13.03125 -5.78125 13.125 -5.15625 C 13.15625 -5.039062 13.195312 -4.804688 13.25 -4.453125 C 13.3125 -4.109375 13.382812 -3.710938 13.46875 -3.265625 C 13.550781 -2.828125 13.628906 -2.382812 13.703125 -1.9375 C 13.785156 -1.5 13.859375 -1.113281 13.921875 -0.78125 C 13.992188 -0.457031 14.039062 -0.242188 14.0625 -0.140625 C 14.09375 -0.046875 14.066406 0 13.984375 0 Z M 13.984375 0 "/></g></g></g></g></g></svg>